# xmcd CD database file
#
# Track frame offsets:
#	150
#	17646
#	34283
#	55431
#	73587
#	81705
#	100746
#	118888
#	132614
#	149774
#	167457
#	184319
#	189389
#	207570
#	227496
#	247853
#	265318
#	286731
#
# Disc length: 4131 seconds
#
# Revision: 4
# Processed by: cddbd v1.5.2PL0 Copyright (c) Steve Scherf et al.
# Submitted via: CDex 1.51
#
DISCID=15102112
DTITLE=Naturally 7 - Ready II Fly
DYEAR=2008
DGENRE=R&B
TTITLE0=Can Ya Feel It?
TTITLE1=Open Your Eyes
TTITLE2=Feel It (In The Air Tonight)
TTITLE3=Harder Than That
TTITLE4=How Could It Be?
TTITLE5=Forever For You
TTITLE6=Cool
TTITLE7=Never
TTITLE8=I Can't Doo Dat
TTITLE9=4 Life
TTITLE10=Tradition
TTITLE11=Fly Baby
TTITLE12=Let It Rain
TTITLE13=What I'm Lookin' 4 (Ain't No Mountain High Enough)
TTITLE14=New York
TTITLE15=Comfort You
TTITLE16=Close 2 Me
TTITLE17=True Friends (And Family)
EXTD=YEAR: 2008
EXTT0=
EXTT1=
EXTT2=
EXTT3=
EXTT4=
EXTT5=
EXTT6=
EXTT7=
EXTT8=
EXTT9=
EXTT10=
EXTT11=
EXTT12=
EXTT13=
EXTT14=
EXTT15=
EXTT16=
EXTT17=
PLAYORDER=
